<?xml version="1.0" encoding="utf-8"?>
<!-- Generated by Mocodo 4.1.1 -->
<svg width="598" height="136" viewBox="0 0 598 136" xmlns="http://www.w3.org/2000/svg">
<rect x="0" y="0" width="598" height="136" fill="#f7f7f7" stroke="none" stroke-width="0"/>

<!-- Association APPARTENIR -->
<g>
	<line x1="336" y1="68" x2="219" y2="68" stroke="#5aae61" stroke-width="2"/>
	<line x1="75" y1="68" x2="219" y2="68" stroke="#5aae61" stroke-width="2"/>
	<g>
		<path d="M251 43 a14 14 90 0 1 14 14 V68 h-92 V57 a14 14 90 0 1 14 -14" fill="#a6dba0" stroke="#a6dba0" stroke-width="0"/>
		<path d="M265 68 v11 a14 14 90 0 1 -14 14 H187 a14 14 90 0 1 -14 -14 V68 H92" fill="#d9f0d3" stroke="#d9f0d3" stroke-width="0"/>
		<rect x="173" y="43" width="92" height="50" fill="none" rx="14" stroke="#5aae61" stroke-width="2"/>
		<line x1="173" y1="68" x2="265" y2="68" stroke="#5aae61" stroke-width="1"/>
		<text x="180" y="60.75" fill="#000000" font-family="Verdana" font-size="12">APPARTENIR</text>
	</g>
	<text x="271" y="85" fill="#762a83" font-family="Verdana" font-size="12">1,1</text>
	<text x="146" y="85" fill="#762a83" font-family="Verdana" font-size="12">0,N</text>
</g>

<!-- Association POUVOIR -->
<g>
	<line x1="550" y1="68" x2="443" y2="68" stroke="#5aae61" stroke-width="2"/>
	<line x1="336" y1="68" x2="443" y2="68" stroke="#5aae61" stroke-width="2"/>
	<g>
		<path d="M465 43 a14 14 90 0 1 14 14 V68 h-72 V57 a14 14 90 0 1 14 -14" fill="#a6dba0" stroke="#a6dba0" stroke-width="0"/>
		<path d="M479 68 v11 a14 14 90 0 1 -14 14 H421 a14 14 90 0 1 -14 -14 V68 H72" fill="#d9f0d3" stroke="#d9f0d3" stroke-width="0"/>
		<rect x="407" y="43" width="72" height="50" fill="none" rx="14" stroke="#5aae61" stroke-width="2"/>
		<line x1="407" y1="68" x2="479" y2="68" stroke="#5aae61" stroke-width="1"/>
		<text x="414" y="60.75" fill="#000000" font-family="Verdana" font-size="12">POUVOIR</text>
	</g>
	<text x="484" y="85" fill="#762a83" font-family="Verdana" font-size="12">0,N</text>
	<text x="380" y="85" fill="#762a83" font-family="Verdana" font-size="12">1,1</text>
</g>

<!-- Entity CATEGORIE -->
<g>
	<g>
		<rect x="9" y="17" width="132" height="25" fill="#c2a5cf" stroke="none" stroke-width="0" opacity="1"/>
		<rect x="9" y="42" width="132" height="77" fill="#e7d4e8" stroke="none" stroke-width="0" opacity="1"/>
		<rect x="9" y="17" width="132" height="102" fill="none" stroke="#9970ab" stroke-width="2" opacity="1"/>
		<line x1="9" y1="42" x2="141" y2="42" stroke="#9970ab" stroke-width="1"/>
	</g>
	<text x="47" y="34.75" fill="#000000" font-family="Verdana" font-size="12">categorie</text>
	<text x="14" y="59.8" fill="#000000" font-family="Verdana" font-size="12">codeCategorie</text>
	<line x1="14" y1="62" x2="101" y2="62" stroke="#000000" stroke-width="1"/>
	<text x="14" y="76.8" fill="#000000" font-family="Verdana" font-size="12">nom de la categorie</text>
	<text x="14" y="93.8" fill="#000000" font-family="Verdana" font-size="12">description</text>
	<text x="14" y="110.8" fill="#000000" font-family="Verdana" font-size="12">caracteristique</text>
</g>

<!-- Entity ARTICLE -->
<g>
	<g>
		<rect x="297" y="9" width="78" height="25" fill="#c2a5cf" stroke="none" stroke-width="0" opacity="1"/>
		<rect x="297" y="34" width="78" height="93" fill="#e7d4e8" stroke="none" stroke-width="0" opacity="1"/>
		<rect x="297" y="9" width="78" height="118" fill="none" stroke="#9970ab" stroke-width="2" opacity="1"/>
		<line x1="297" y1="34" x2="375" y2="34" stroke="#9970ab" stroke-width="1"/>
	</g>
	<text x="317" y="26.75" fill="#000000" font-family="Verdana" font-size="12">article</text>
	<text x="302" y="51.8" fill="#000000" font-family="Verdana" font-size="12">codeArticle</text>
	<line x1="302" y1="54" x2="369" y2="54" stroke="#000000" stroke-width="1"/>
	<text x="302" y="68.8" fill="#000000" font-family="Verdana" font-size="12">image</text>
	<text x="302" y="85.8" fill="#000000" font-family="Verdana" font-size="12">price</text>
	<text x="302" y="102.8" fill="#000000" font-family="Verdana" font-size="12">color</text>
	<text x="302" y="119.8" fill="#000000" font-family="Verdana" font-size="12">description</text>
</g>

<!-- Entity USER -->
<g>
	<g>
		<rect x="511" y="9" width="78" height="25" fill="#c2a5cf" stroke="none" stroke-width="0" opacity="1"/>
		<rect x="511" y="34" width="78" height="93" fill="#e7d4e8" stroke="none" stroke-width="0" opacity="1"/>
		<rect x="511" y="9" width="78" height="118" fill="none" stroke="#9970ab" stroke-width="2" opacity="1"/>
		<line x1="511" y1="34" x2="589" y2="34" stroke="#9970ab" stroke-width="1"/>
	</g>
	<text x="537" y="26.75" fill="#000000" font-family="Verdana" font-size="12">user</text>
	<text x="516" y="51.8" fill="#000000" font-family="Verdana" font-size="12">codeAdmin</text>
	<line x1="516" y1="54" x2="583" y2="54" stroke="#000000" stroke-width="1"/>
	<text x="516" y="68.8" fill="#000000" font-family="Verdana" font-size="12">firstname</text>
	<text x="516" y="85.8" fill="#000000" font-family="Verdana" font-size="12">lastname</text>
	<text x="516" y="102.8" fill="#000000" font-family="Verdana" font-size="12">email</text>
	<text x="516" y="119.8" fill="#000000" font-family="Verdana" font-size="12">role</text>
</g>
</svg>