<?xml version="1.0" encoding="utf-8"?>
<!-- Generated by Mocodo 4.1.1 -->
<svg width="506" height="136" viewBox="0 0 506 136" xmlns="http://www.w3.org/2000/svg">
<rect x="0" y="0" width="506" height="136" fill="#f7f7f7" stroke="none" stroke-width="0"/>

<!-- Association AVOIR -->
<g>
	<line x1="48" y1="68" x2="146" y2="68" stroke="#5aae61" stroke-width="2"/>
	<line x1="244" y1="68" x2="146" y2="68" stroke="#5aae61" stroke-width="2"/>
	<g>
		<path d="M159 43 a14 14 90 0 1 14 14 V68 h-54 V57 a14 14 90 0 1 14 -14" fill="#a6dba0" stroke="#a6dba0" stroke-width="0"/>
		<path d="M173 68 v11 a14 14 90 0 1 -14 14 H133 a14 14 90 0 1 -14 -14 V68 H54" fill="#d9f0d3" stroke="#d9f0d3" stroke-width="0"/>
		<rect x="119" y="43" width="54" height="50" fill="none" rx="14" stroke="#5aae61" stroke-width="2"/>
		<line x1="119" y1="68" x2="173" y2="68" stroke="#5aae61" stroke-width="1"/>
		<text x="126" y="60.75" fill="#000000" font-family="Verdana" font-size="12">AVOIR</text>
	</g>
	<text x="92" y="85" fill="#762a83" font-family="Verdana" font-size="12">1,N</text>
	<text x="179" y="85" fill="#762a83" font-family="Verdana" font-size="12">0,1</text>
</g>

<!-- Association POUVOIR -->
<g>
	<line x1="458" y1="68" x2="351" y2="68" stroke="#5aae61" stroke-width="2"/>
	<line x1="244" y1="68" x2="351" y2="68" stroke="#5aae61" stroke-width="2"/>
	<g>
		<path d="M373 43 a14 14 90 0 1 14 14 V68 h-72 V57 a14 14 90 0 1 14 -14" fill="#a6dba0" stroke="#a6dba0" stroke-width="0"/>
		<path d="M387 68 v11 a14 14 90 0 1 -14 14 H329 a14 14 90 0 1 -14 -14 V68 H72" fill="#d9f0d3" stroke="#d9f0d3" stroke-width="0"/>
		<rect x="315" y="43" width="72" height="50" fill="none" rx="14" stroke="#5aae61" stroke-width="2"/>
		<line x1="315" y1="68" x2="387" y2="68" stroke="#5aae61" stroke-width="1"/>
		<text x="322" y="60.75" fill="#000000" font-family="Verdana" font-size="12">POUVOIR</text>
	</g>
	<text x="392" y="85" fill="#762a83" font-family="Verdana" font-size="12">0,N</text>
	<text x="288" y="85" fill="#762a83" font-family="Verdana" font-size="12">1,1</text>
</g>

<!-- Entity PROMO -->
<g>
	<g>
		<rect x="9" y="34" width="78" height="25" fill="#c2a5cf" stroke="none" stroke-width="0" opacity="1"/>
		<rect x="9" y="59" width="78" height="43" fill="#e7d4e8" stroke="none" stroke-width="0" opacity="1"/>
		<rect x="9" y="34" width="78" height="68" fill="none" stroke="#9970ab" stroke-width="2" opacity="1"/>
		<line x1="9" y1="59" x2="87" y2="59" stroke="#9970ab" stroke-width="1"/>
	</g>
	<text x="28" y="51.75" fill="#000000" font-family="Verdana" font-size="12">promo</text>
	<text x="14" y="76.8" fill="#000000" font-family="Verdana" font-size="12">codePromo</text>
	<line x1="14" y1="79" x2="82" y2="79" stroke="#000000" stroke-width="1"/>
	<text x="14" y="93.8" fill="#000000" font-family="Verdana" font-size="12">css</text>
</g>

<!-- Entity ARTICLE -->
<g>
	<g>
		<rect x="205" y="26" width="78" height="25" fill="#c2a5cf" stroke="none" stroke-width="0" opacity="1"/>
		<rect x="205" y="51" width="78" height="59" fill="#e7d4e8" stroke="none" stroke-width="0" opacity="1"/>
		<rect x="205" y="26" width="78" height="84" fill="none" stroke="#9970ab" stroke-width="2" opacity="1"/>
		<line x1="205" y1="51" x2="283" y2="51" stroke="#9970ab" stroke-width="1"/>
	</g>
	<text x="225" y="43.75" fill="#000000" font-family="Verdana" font-size="12">article</text>
	<text x="210" y="68.8" fill="#000000" font-family="Verdana" font-size="12">codeArticle</text>
	<line x1="210" y1="71" x2="277" y2="71" stroke="#000000" stroke-width="1"/>
	<text x="210" y="85.8" fill="#000000" font-family="Verdana" font-size="12">image</text>
	<text x="210" y="102.8" fill="#000000" font-family="Verdana" font-size="12">price</text>
</g>

<!-- Entity USER -->
<g>
	<g>
		<rect x="419" y="9" width="78" height="25" fill="#c2a5cf" stroke="none" stroke-width="0" opacity="1"/>
		<rect x="419" y="34" width="78" height="93" fill="#e7d4e8" stroke="none" stroke-width="0" opacity="1"/>
		<rect x="419" y="9" width="78" height="118" fill="none" stroke="#9970ab" stroke-width="2" opacity="1"/>
		<line x1="419" y1="34" x2="497" y2="34" stroke="#9970ab" stroke-width="1"/>
	</g>
	<text x="445" y="26.75" fill="#000000" font-family="Verdana" font-size="12">user</text>
	<text x="424" y="51.8" fill="#000000" font-family="Verdana" font-size="12">codeAdmin</text>
	<line x1="424" y1="54" x2="491" y2="54" stroke="#000000" stroke-width="1"/>
	<text x="424" y="68.8" fill="#000000" font-family="Verdana" font-size="12">firstname</text>
	<text x="424" y="85.8" fill="#000000" font-family="Verdana" font-size="12">lastname</text>
	<text x="424" y="102.8" fill="#000000" font-family="Verdana" font-size="12">email</text>
	<text x="424" y="119.8" fill="#000000" font-family="Verdana" font-size="12">role</text>
</g>
</svg>